/* XPM */
static char * qgo_16x16_xpm[] = {
"16 16 124 2",
"  	c None",
". 	c #A6654B",
"+ 	c #AF6D4B",
"@ 	c #A7603C",
"# 	c #944B2F",
"$ 	c #9C5432",
"% 	c #9C5539",
"& 	c #9E6047",
"* 	c #9C5C43",
"= 	c #A15A38",
"- 	c #A86D5B",
"; 	c #EDE6E7",
"> 	c #FEFFFF",
", 	c #E6D9D7",
"' 	c #DDD2D1",
") 	c #A6796E",
"! 	c #9C5E4C",
"~ 	c #883928",
"{ 	c #E3D4D0",
"] 	c #FFFFFF",
"^ 	c #FFFFFD",
"/ 	c #E8E3E1",
"( 	c #B45F46",
"_ 	c #9E5236",
": 	c #754339",
"< 	c #8C4331",
"[ 	c #792921",
"} 	c #BC8476",
"| 	c #C89E98",
"1 	c #CEADAA",
"2 	c #D8C6C8",
"3 	c #DECBD0",
"4 	c #B77C76",
"5 	c #A24632",
"6 	c #943B25",
"7 	c #7F4A33",
"8 	c #6C2B1E",
"9 	c #813523",
"0 	c #903E2A",
"a 	c #915352",
"b 	c #924D4A",
"c 	c #B46454",
"d 	c #A45548",
"e 	c #9A3922",
"f 	c #983921",
"g 	c #803120",
"h 	c #7C3C26",
"i 	c #844023",
"j 	c #6F261B",
"k 	c #6F271B",
"l 	c #9F452A",
"m 	c #873020",
"n 	c #8D3320",
"o 	c #903626",
"p 	c #8A3320",
"q 	c #773829",
"r 	c #63392A",
"s 	c #87422B",
"t 	c #743221",
"u 	c #833C25",
"v 	c #782F22",
"w 	c #7C2B1D",
"x 	c #7D281D",
"y 	c #76261A",
"z 	c #7F4130",
"A 	c #5F3625",
"B 	c #6B3221",
"C 	c #803B26",
"D 	c #7B3726",
"E 	c #6C2A1F",
"F 	c #5A261D",
"G 	c #663C33",
"H 	c #A65039",
"I 	c #C87B68",
"J 	c #D5937D",
"K 	c #CB7C63",
"L 	c #C46E4B",
"M 	c #994331",
"N 	c #732C1F",
"O 	c #AD5336",
"P 	c #BC644A",
"Q 	c #BA6449",
"R 	c #C25E39",
"S 	c #BD5733",
"T 	c #A7442D",
"U 	c #9E442E",
"V 	c #973F2B",
"W 	c #792F23",
"X 	c #97422F",
"Y 	c #C4643D",
"Z 	c #BB5936",
"` 	c #AD5032",
" .	c #A7482E",
"..	c #923C29",
"+.	c #A2452A",
"@.	c #9C4029",
"#.	c #712A1E",
"$.	c #8B3D2E",
"%.	c #903E2B",
"&.	c #B75437",
"*.	c #C15F38",
"=.	c #B75935",
"-.	c #A64F31",
";.	c #973F2A",
">.	c #A54628",
",.	c #9E3F27",
"'.	c #883525",
").	c #843E2F",
"!.	c #854030",
"~.	c #863725",
"{.	c #A84C34",
"].	c #B95334",
"^.	c #9F432D",
"/.	c #9F4129",
"(.	c #9F452F",
"_.	c #944130",
":.	c #8D4132",
"<.	c #7B3D2C",
"[.	c #7F3927",
"}.	c #943F2E",
"|.	c #8A392B",
"1.	c #8B3D34",
"2.	c #8C483B",
"3.	c #834439",
"                                ",
"    . + @ # $ % &               ",
"  * = - ; > , ' ) !             ",
"  ~ { ] ] ^ ] ] / ( _           ",
": < [ } | 1 2 3 4 5 6           ",
"7 8 9 0 a b c d e f g           ",
"  h i j k l m n o p q           ",
"  r s t u v w x y z             ",
"    A B C D E F G               ",
"              H I J K L M N     ",
"            O P Q R S T U V W   ",
"            X Y Z `  ...+.@.#.$.",
"            %.&.*.=.-.;.>.,.'.).",
"            !.~.{.].^./.(._.:.  ",
"              <.[.}.|.1.2.3.    ",
"                                "};
