/* XPM */
static char * qgo_xpm[] = {
"32 32 496 2",
"  	c None",
". 	c #A36243",
"+ 	c #AC6D4E",
"@ 	c #A9684A",
"# 	c #AA6B4B",
"$ 	c #A86648",
"% 	c #985A3A",
"& 	c #A76749",
"* 	c #B97454",
"= 	c #B87957",
"- 	c #B67A53",
"; 	c #AF6D49",
"> 	c #AA6646",
", 	c #A96745",
"' 	c #AA6641",
") 	c #A7674A",
"! 	c #AD6E53",
"~ 	c #A76A50",
"{ 	c #975C41",
"] 	c #A9624A",
"^ 	c #B77756",
"/ 	c #AE724F",
"( 	c #A96541",
"_ 	c #A05736",
": 	c #974F2C",
"< 	c #853B25",
"[ 	c #853C27",
"} 	c #974F32",
"| 	c #934A2E",
"1 	c #8A432C",
"2 	c #9A5133",
"3 	c #9C5B3E",
"4 	c #9C6150",
"5 	c #A6674C",
"6 	c #A8624A",
"7 	c #AC7454",
"8 	c #A56244",
"9 	c #9C5635",
"0 	c #954732",
"a 	c #CEB1AE",
"b 	c #CFBAB6",
"c 	c #FEFEFB",
"d 	c #FEFFFF",
"e 	c #AA8177",
"f 	c #E1CFCA",
"g 	c #E3DADD",
"h 	c #9E7169",
"i 	c #8C5042",
"j 	c #8F4833",
"k 	c #7F4135",
"l 	c #AC5A3B",
"m 	c #744F3A",
"n 	c #874731",
"o 	c #B06E52",
"p 	c #A25D3C",
"q 	c #9B4B2E",
"r 	c #B07568",
"s 	c #DBCCC6",
"t 	c #FFFFFF",
"u 	c #F4F4F0",
"v 	c #E7E1DF",
"w 	c #DCD2D0",
"x 	c #B2938A",
"y 	c #A6918D",
"z 	c #A35239",
"A 	c #AF5F3C",
"B 	c #7A4834",
"C 	c #8B3E2A",
"D 	c #954C34",
"E 	c #AE7A6E",
"F 	c #D3BBB3",
"G 	c #F0EEED",
"H 	c #FBFBF9",
"I 	c #FBF9FA",
"J 	c #FDFDFC",
"K 	c #F4F4F2",
"L 	c #FEFEFE",
"M 	c #D5D6CF",
"N 	c #BF8D7C",
"O 	c #B25535",
"P 	c #AC5138",
"Q 	c #905A3F",
"R 	c #7E483B",
"S 	c #7E4137",
"T 	c #8F3829",
"U 	c #E7D9D6",
"V 	c #FCFFFF",
"W 	c #FAFAFA",
"X 	c #FAFBF5",
"Y 	c #FCFDF7",
"Z 	c #FAFAF9",
"` 	c #FFFFFD",
" .	c #F7FAF9",
"..	c #BC8781",
"+.	c #A8513B",
"@.	c #B2563D",
"#.	c #A2482E",
"$.	c #995737",
"%.	c #77443C",
"&.	c #884338",
"*.	c #994835",
"=.	c #812C1D",
"-.	c #94554E",
";.	c #CCB5AF",
">.	c #EFE8E7",
",.	c #F0EDED",
"'.	c #D9CDCE",
").	c #C7A5A7",
"!.	c #A96D69",
"~.	c #BD8480",
"{.	c #A86054",
"].	c #9F402E",
"^.	c #99381E",
"/.	c #984833",
"(.	c #7F4436",
"_.	c #8C4730",
":.	c #7A3322",
"<.	c #712823",
"[.	c #7C291E",
"}.	c #923320",
"|.	c #A14126",
"1.	c #8E3322",
"2.	c #893831",
"3.	c #924842",
"4.	c #9E5955",
"5.	c #A97678",
"6.	c #C6A6AD",
"7.	c #E7D0D3",
"8.	c #E8D3D8",
"9.	c #CFA6A2",
"0.	c #A95F50",
"a.	c #A4422A",
"b.	c #9E3F27",
"c.	c #97331C",
"d.	c #8A3C28",
"e.	c #80422B",
"f.	c #773727",
"g.	c #6A271C",
"h.	c #6F281D",
"i.	c #893A28",
"j.	c #9F4B32",
"k.	c #954332",
"l.	c #8F4440",
"m.	c #9A5958",
"n.	c #985250",
"o.	c #8D413C",
"p.	c #A45449",
"q.	c #B96C5A",
"r.	c #B87467",
"s.	c #A7625A",
"t.	c #9B4436",
"u.	c #9B3925",
"v.	c #9C3D24",
"w.	c #98391F",
"x.	c #92311B",
"y.	c #823523",
"z.	c #804832",
"A.	c #703123",
"B.	c #6B291B",
"C.	c #7D331F",
"D.	c #8F432B",
"E.	c #8F3F29",
"F.	c #7F362C",
"G.	c #83453F",
"H.	c #9B6C6B",
"I.	c #956467",
"J.	c #9E4F43",
"K.	c #B76651",
"L.	c #B26C62",
"M.	c #9B4C43",
"N.	c #9C3C26",
"O.	c #993A20",
"P.	c #9B3D23",
"Q.	c #943923",
"R.	c #923421",
"S.	c #852F1D",
"T.	c #6D3529",
"U.	c #7F4A33",
"V.	c #733527",
"W.	c #7C3926",
"X.	c #803B23",
"Y.	c #874025",
"Z.	c #792D1F",
"`.	c #6C251E",
" +	c #7A2F21",
".+	c #722B23",
"++	c #8D3827",
"@+	c #AC4E31",
"#+	c #913B28",
"$+	c #893325",
"%+	c #923928",
"&+	c #8E3521",
"*+	c #943825",
"=+	c #963E2C",
"-+	c #923B26",
";+	c #842D1E",
">+	c #822B18",
",+	c #683A2F",
"'+	c #83432A",
")+	c #793D1F",
"!+	c #834324",
"~+	c #7E3D20",
"{+	c #6D261C",
"]+	c #732B19",
"^+	c #672117",
"/+	c #7A301F",
"(+	c #A04A2D",
"_+	c #913B22",
":+	c #7C291C",
"<+	c #903422",
"[+	c #89321E",
"}+	c #8B3122",
"|+	c #893122",
"1+	c #87301F",
"2+	c #923924",
"3+	c #80301D",
"4+	c #8A412F",
"5+	c #654131",
"6+	c #7C3D2A",
"7+	c #85442B",
"8+	c #833B28",
"9+	c #75341F",
"0+	c #6B291C",
"a+	c #702C1E",
"b+	c #8F4226",
"c+	c #8B3C2A",
"d+	c #74281E",
"e+	c #812F1E",
"f+	c #883222",
"g+	c #852C22",
"h+	c #7E291B",
"i+	c #812C1B",
"j+	c #7A291D",
"k+	c #833828",
"l+	c #8E442E",
"m+	c #654C41",
"n+	c #543024",
"o+	c #87432C",
"p+	c #823E29",
"q+	c #7A3527",
"r+	c #773824",
"s+	c #7E3C26",
"t+	c #893E29",
"u+	c #753123",
"v+	c #742D1E",
"w+	c #77291E",
"x+	c #6E231B",
"y+	c #732519",
"z+	c #7C2A1E",
"A+	c #712318",
"B+	c #722A21",
"C+	c #86422F",
"D+	c #614237",
"E+	c #593629",
"F+	c #803D24",
"G+	c #813D25",
"H+	c #7D3923",
"I+	c #7D3C27",
"J+	c #823B27",
"K+	c #703024",
"L+	c #793222",
"M+	c #68241B",
"N+	c #651F15",
"O+	c #6A2318",
"P+	c #5E1D15",
"Q+	c #672921",
"R+	c #6D3B2E",
"S+	c #40312A",
"T+	c #562C22",
"U+	c #55271D",
"V+	c #803C2A",
"W+	c #7C3520",
"X+	c #853F28",
"Y+	c #7A3825",
"Z+	c #753427",
"`+	c #6F3326",
" @	c #663127",
".@	c #4F3128",
"+@	c #584340",
"@@	c #8C614E",
"#@	c #C58066",
"$@	c #BF725F",
"%@	c #B66950",
"&@	c #B26447",
"*@	c #A75E46",
"=@	c #AB5D41",
"-@	c #40221E",
";@	c #3C2323",
">@	c #352221",
",@	c #AA5C49",
"'@	c #B8604A",
")@	c #BB5D41",
"!@	c #C77D61",
"~@	c #CD8773",
"{@	c #CD8674",
"]@	c #C97C65",
"^@	c #C2765A",
"/@	c #BB6948",
"(@	c #9E4837",
"_@	c #903D29",
":@	c #823827",
"<@	c #B35941",
"[@	c #AE4D31",
"}@	c #BA7365",
"|@	c #E0B1A3",
"1@	c #DEA796",
"2@	c #D48A71",
"3@	c #CA795B",
"4@	c #C56E4E",
"5@	c #C46C45",
"6@	c #C05E3D",
"7@	c #AC5239",
"8@	c #8E3A2E",
"9@	c #6E281D",
"0@	c #75291B",
"a@	c #8E412C",
"b@	c #AE543A",
"c@	c #A8432D",
"d@	c #C77F66",
"e@	c #C37B67",
"f@	c #BC6246",
"g@	c #CA6C43",
"h@	c #C4633D",
"i@	c #C45F39",
"j@	c #B95337",
"k@	c #B24B2F",
"l@	c #A7442F",
"m@	c #9C432C",
"n@	c #98402F",
"o@	c #99402C",
"p@	c #7D2F22",
"q@	c #6D281D",
"r@	c #994230",
"s@	c #9D4F36",
"t@	c #B95435",
"u@	c #B65E45",
"v@	c #C56A49",
"w@	c #C1623C",
"x@	c #AC4E38",
"y@	c #B44F37",
"z@	c #C56039",
"A@	c #C36136",
"B@	c #AF4B2D",
"C@	c #A9472D",
"D@	c #9C422D",
"E@	c #9A432E",
"F@	c #A94A30",
"G@	c #AB4A30",
"H@	c #963E29",
"I@	c #60241B",
"J@	c #803326",
"K@	c #893929",
"L@	c #8D4333",
"M@	c #904233",
"N@	c #AC4B30",
"O@	c #C46A3E",
"P@	c #C05C3F",
"Q@	c #BA5936",
"R@	c #BC5D37",
"S@	c #A84A31",
"T@	c #B35433",
"U@	c #AD4D32",
"V@	c #A1422A",
"W@	c #983E2B",
"X@	c #953F2B",
"Y@	c #A2462D",
"Z@	c #A3462C",
"`@	c #9D4329",
" #	c #994029",
".#	c #7C2F23",
"+#	c #672518",
"@#	c #994030",
"##	c #954834",
"$#	c #863E2B",
"%#	c #A14330",
"&#	c #C1643B",
"*#	c #BF5D39",
"=#	c #B95637",
"-#	c #BC5B37",
";#	c #B55A33",
">#	c #A84E34",
",#	c #B25533",
"'#	c #9A402A",
")#	c #923C2B",
"!#	c #953C27",
"~#	c #A34129",
"{#	c #9D4527",
"]#	c #943A24",
"^#	c #9F3F2A",
"/#	c #833325",
"(#	c #6B281D",
"_#	c #9D4030",
":#	c #8A4130",
"<#	c #863A2A",
"[#	c #A14630",
"}#	c #B05136",
"|#	c #BE5C3B",
"1#	c #BE5C36",
"2#	c #C26038",
"3#	c #BD5E35",
"4#	c #A95134",
"5#	c #B05833",
"6#	c #A1482F",
"7#	c #943E29",
"8#	c #963E24",
"9#	c #A64429",
"0#	c #9E4025",
"a#	c #993D27",
"b#	c #9E4028",
"c#	c #7D2B22",
"d#	c #8A3A24",
"e#	c #9D412E",
"f#	c #6E4030",
"g#	c #A04831",
"h#	c #7C3322",
"i#	c #AF5036",
"j#	c #B24F33",
"k#	c #BF5D38",
"l#	c #C56136",
"m#	c #AC4E33",
"n#	c #A14B30",
"o#	c #A54A30",
"p#	c #9A4330",
"q#	c #9E412B",
"r#	c #A9482A",
"s#	c #A2472B",
"t#	c #9D4026",
"u#	c #9F402A",
"v#	c #7D2E1C",
"w#	c #9B4533",
"x#	c #8C4131",
"y#	c #884131",
"z#	c #8A3C2A",
"A#	c #7A3021",
"B#	c #AF4F35",
"C#	c #AE4D34",
"D#	c #B65738",
"E#	c #BB5836",
"F#	c #B44E34",
"G#	c #98412D",
"H#	c #A6462F",
"I#	c #9D402E",
"J#	c #9C452D",
"K#	c #A0432D",
"L#	c #A3472B",
"M#	c #983822",
"N#	c #95412B",
"O#	c #8F4339",
"P#	c #A3422A",
"Q#	c #574036",
"R#	c #8C4533",
"S#	c #8F3E2B",
"T#	c #6B271B",
"U#	c #8F3D2D",
"V#	c #A64C34",
"W#	c #B05132",
"X#	c #B44E30",
"Y#	c #9D4328",
"Z#	c #9D4125",
"`#	c #9E3E26",
" $	c #943D28",
".$	c #A04D3A",
"+$	c #894136",
"@$	c #9B4638",
"#$	c #A24532",
"$$	c #553832",
"%$	c #723B2C",
"&$	c #A0472D",
"*$	c #8C3825",
"=$	c #702D21",
"-$	c #7E3125",
";$	c #8F3A2D",
">$	c #8E392D",
",$	c #823729",
"'$	c #84392E",
")$	c #7A3933",
"!$	c #8A463D",
"~$	c #9B483B",
"{$	c #A0483C",
"]$	c #954D3D",
"^$	c #3C312B",
"/$	c #693929",
"($	c #9C4731",
"_$	c #A54836",
":$	c #9F4830",
"<$	c #8F3C27",
"[$	c #8C3C2E",
"}$	c #8D3C2E",
"|$	c #A44B3D",
"1$	c #924A3C",
"2$	c #7A4537",
"3$	c #523934",
"4$	c #673C2E",
"5$	c #653C32",
"6$	c #653B33",
"7$	c #614337",
"                                                                ",
"                  . + @ # $ %                                   ",
"            & * = - ; > , ' ) ! ~ {                             ",
"        ] ^ / ( _ : < [ } | 1 2 3 4 5                           ",
"      6 7 8 9 0 a b c d e f g h i j k l m                       ",
"    n o p q r s t t u u t t t v w x y z A                       ",
"  B C D E F t G H t t I J t K L t M N O P Q                     ",
"  R S T U V t H W L X Y Z t ` t  ...+.@.#.$.                    ",
"  %.&.*.=.-.;.>.t t t t t ,.'.).!.~.{.].^./.                    ",
"  (._.:.<.[.}.|.1.2.3.4.5.6.7.8.9.0.a.b.c.d.                    ",
"  e.f.g.h.i.j.k.l.m.n.o.p.q.r.s.t.u.v.w.x.y.                    ",
"  z.A.B.C.D.E.F.G.H.I.J.K.L.M.N.O.P.Q.R.S.T.                    ",
"  U.V.W.X.Y.Z.`. +.+++@+#+$+%+&+*+=+-+;+>+,+                    ",
"    '+)+!+~+{+]+^+/+(+_+:+<+[+}+|+1+2+3+4+                      ",
"    5+6+7+8+9+0+a+b+c+d+e+f+g+h+i+j+k+l+m+                      ",
"      n+o+p+q+r+s+t+u+v+w+x+y+z+A+B+C+D+                        ",
"        E+F+G+H+I+J+K+L+M+N+O+P+Q+R+S+                          ",
"            T+U+V+W+X+Y+Z+`+ @.@+@@@#@$@%@&@*@=@                ",
"                    -@;@>@    ,@'@)@!@~@{@]@^@/@(@_@:@          ",
"                            <@[@}@|@1@2@3@4@5@6@7@8@9@0@a@      ",
"                          b@c@d@e@f@g@h@i@j@k@l@m@n@o@p@q@r@    ",
"                        s@t@u@v@w@x@y@z@A@B@C@D@E@F@G@H@I@J@K@  ",
"                      L@M@N@O@P@Q@R@S@T@U@V@W@X@Y@Z@`@ #.#+#@#  ",
"                      ##$#%#&#*#=#-#;#>#,#'#)#!#~#{#]#^#/#(#_#  ",
"                      :#<#[#}#|#1#2#3#4#5#6#7#8#9#0#a#b#c#d#e#  ",
"                      f#g#h#i#j#1#k#l#m#n#o#p#q#r#s#t#u#v#w#x#  ",
"                        y#z#A#B#C#D#E#F#G#H#I#J#K#L#M#N#O#P#Q#  ",
"                          R#S#T#U#V#W#X#Y#%#Z#`# $.$+$@$#$$$    ",
"                            %$&$*$=$-$;$>$,$'$)$!$~${$]$^$      ",
"                                /$($_$:$<$[$}$|$1$2$3$          ",
"                                      4$5$6$7$                  ",
"                                                                "};
